<?xml version="1.0" encoding="UTF-8"?>
<svg id="Capa_1" data-name="Capa 1" xmlns="http://www.w3.org/2000/svg" xmlns:xlink="http://www.w3.org/1999/xlink" viewBox="0 0 1080 1080">
  <defs>
    <style>
      .cls-1 {
        fill: #fff;
      }

      .cls-2 {
        fill: url(#Degradado_sin_nombre_2);
      }

      .cls-3 {
        fill: url(#Degradado_sin_nombre_2-2);
      }
    </style>
    <linearGradient id="Degradado_sin_nombre_2" data-name="Degradado sin nombre 2" x1="534.93" y1="919.48" x2="534.93" y2="317.92" gradientUnits="userSpaceOnUse">
      <stop offset="0" stop-color="#6792eb"/>
      <stop offset="1" stop-color="#535cd4"/>
    </linearGradient>
    <linearGradient id="Degradado_sin_nombre_2-2" data-name="Degradado sin nombre 2" x1="534.61" y1="762.06" x2="534.61" y2="160.52" xlink:href="#Degradado_sin_nombre_2"/>
  </defs>
  <circle class="cls-1" cx="534.77" cy="540" r="485.41"/>
  <path class="cls-2" d="m554.06,919.48c-94.58,0-181.99-62.35-239.81-171.07-15.62-29.37-4.43-65.96,24.93-81.58,29.38-15.61,65.97-4.43,81.58,24.93,36.25,68.16,84.86,107.08,133.59,107.08.53,0,1.05,0,1.58-.01,32.64-.63,61.89-19.55,76.3-49.37,19.45-40.24,8.73-92.03-29.41-142.09-13.99-18.37-26.26-37.09-38.13-55.21l-92.27-140.83c-8.83-13.48-11.88-29.59-8.6-45.36,3.29-15.77,12.52-29.32,25.99-38.15,13.49-8.83,29.61-11.89,45.37-8.6,15.77,3.29,29.32,12.52,38.14,26l92.19,140.72c11.23,17.13,21.83,33.32,33.26,48.33,66.67,87.51,82,185.08,42.07,267.7-34.29,70.95-104.27,115.97-182.63,117.49-1.39.03-2.78.04-4.16.04Zm-186.59-217.79c-2.91,0-5.86.69-8.61,2.15-8.95,4.76-12.36,15.92-7.6,24.88,50.31,94.58,124.23,148.83,202.8,148.83,1.12,0,2.24-.01,3.36-.03,62.47-1.21,118.29-37.15,145.68-93.81,32.81-67.89,19.08-149.55-37.67-224.05-12.33-16.19-23.33-32.98-34.98-50.76l-92.2-140.72c-2.69-4.11-6.82-6.92-11.63-7.93-4.81-1-9.73-.07-13.84,2.63-4.11,2.69-6.92,6.82-7.92,11.63-1,4.81-.07,9.72,2.62,13.83l92.19,140.72c11.54,17.61,23.4,35.71,36.49,52.89,48.06,63.08,60.38,130.78,33.81,185.74-21.32,44.12-64.73,72.11-113.29,73.05-.77.01-1.54.02-2.31.02-64.79,0-126.85-46.99-170.64-129.32-3.3-6.21-9.68-9.75-16.27-9.75Z"/>
  <path class="cls-3" d="m546.71,762.06c-20.43,0-39.31-10.19-50.49-27.27l-92.19-140.72c-11.28-17.2-21.9-33.41-33.26-48.32-66.67-87.51-82-185.08-42.07-267.7,34.3-70.96,104.28-115.98,182.64-117.49,96.32-1.75,185.2,60.56,243.97,171.03,15.62,29.37,4.43,65.97-24.93,81.58-29.38,15.6-65.98,4.42-81.58-24.93-36.25-68.16-84.86-107.08-133.58-107.08-.53,0-1.06,0-1.59.01-32.64.63-61.89,19.55-76.31,49.37-19.45,40.23-8.72,92.03,29.42,142.09,13.92,18.27,26.14,36.92,37.96,54.95l.09.14,92.34,140.95c8.83,13.48,11.88,29.59,8.6,45.36-3.29,15.77-12.52,29.32-25.99,38.15-9.86,6.46-21.27,9.87-33.02,9.87Zm-31.4-559.61c-1.06,0-2.12,0-3.18.03-62.47,1.21-118.29,37.16-145.68,93.82-32.81,67.89-19.08,149.55,37.68,224.05,12.26,16.09,23.28,32.9,34.95,50.71l92.22,140.77c3.41,5.21,9.18,8.32,15.42,8.32,3.56,0,7.03-1.04,10.04-3.01,4.11-2.69,6.92-6.82,7.93-11.63,1-4.81.07-9.72-2.62-13.83l-92.43-141.08c-11.42-17.42-23.22-35.43-36.25-52.52-48.06-63.08-60.39-130.79-33.82-185.75,21.33-44.12,64.74-72.11,113.29-73.05,65.61-1.15,128.65,45.99,172.96,129.3,4.76,8.95,15.93,12.35,24.89,7.59,8.94-4.76,12.35-15.92,7.59-24.87-50.41-94.76-124.24-148.83-202.98-148.83Z"/>
</svg>