<?xml version="1.0" encoding="UTF-8"?>
<svg id="Capa_1" data-name="Capa 1" xmlns="http://www.w3.org/2000/svg" viewBox="0 0 1080 1080">
  <defs>
    <style>
      .cls-1 {
        fill: #fff;
      }
    </style>
  </defs>
  <path class="cls-1" d="m559.44,922.51c-95.33,0-183.44-62.85-241.73-172.44-15.74-29.6-4.47-66.49,25.13-82.23,29.61-15.74,66.49-4.46,82.24,25.13,36.54,68.7,85.54,107.94,134.66,107.94.53,0,1.06,0,1.59-.01,32.9-.63,62.38-19.7,76.91-49.77,19.6-40.56,8.8-92.76-29.65-143.22-14.1-18.51-26.47-37.39-38.44-55.65l-93-141.96c-8.9-13.58-11.98-29.82-8.67-45.72,3.31-15.9,12.62-29.56,26.2-38.46,13.6-8.9,29.84-11.98,45.73-8.67,15.9,3.31,29.55,12.62,38.45,26.2l92.93,141.84c11.31,17.27,22,33.58,33.52,48.71,67.2,88.21,82.65,186.56,42.4,269.83-34.57,71.52-105.11,116.9-184.09,118.42-1.41.03-2.8.04-4.19.04Zm-188.08-219.53c-2.93,0-5.91.7-8.68,2.17-9.02,4.8-12.46,16.05-7.66,25.08,50.71,95.34,125.22,150.02,204.42,150.02,1.13,0,2.26-.01,3.39-.03,62.97-1.22,119.24-37.45,146.84-94.56,33.07-68.43,19.23-150.74-37.97-225.84-12.43-16.32-23.52-33.25-35.26-51.16l-92.93-141.84c-2.71-4.14-6.88-6.98-11.72-7.99-4.85-1.01-9.8-.07-13.95,2.65-4.14,2.71-6.98,6.88-7.99,11.72-1.01,4.85-.07,9.8,2.64,13.94l92.93,141.84c11.63,17.75,23.59,35.99,36.78,53.31,48.44,63.58,60.86,131.82,34.08,187.22-21.49,44.47-65.25,72.68-114.19,73.63-.77.01-1.56.02-2.33.02-65.31,0-127.86-47.37-172-130.35-3.33-6.26-9.76-9.83-16.4-9.83Z"/>
  <path class="cls-1" d="m552.04,763.83c-20.6,0-39.62-10.27-50.9-27.49l-92.93-141.84c-11.37-17.34-22.08-33.68-33.52-48.71-67.2-88.21-82.66-186.56-42.41-269.84,34.57-71.52,105.11-116.9,184.09-118.43,97.09-1.76,186.68,61.04,245.92,172.39,15.74,29.6,4.47,66.49-25.13,82.24-29.62,15.73-66.5,4.45-82.23-25.13-36.54-68.7-85.54-107.94-134.65-107.94-.54,0-1.06,0-1.6.01-32.9.64-62.38,19.71-76.92,49.77-19.6,40.55-8.79,92.76,29.66,143.23,14.04,18.42,26.35,37.21,38.27,55.39l.09.14,93.08,142.07c8.9,13.58,11.98,29.82,8.67,45.72-3.31,15.9-12.62,29.56-26.2,38.46-9.93,6.51-21.44,9.95-33.28,9.95Zm-31.66-564.07c-1.07,0-2.14,0-3.21.03-62.96,1.22-119.24,37.45-146.84,94.56-33.07,68.43-19.23,150.75,37.98,225.84,12.36,16.22,23.46,33.17,35.23,51.11l92.96,141.89c3.44,5.25,9.25,8.38,15.55,8.38,3.59,0,7.09-1.05,10.12-3.04,4.14-2.71,6.98-6.88,7.99-11.72,1.01-4.85.07-9.8-2.64-13.94l-93.16-142.2c-11.51-17.56-23.41-35.71-36.54-52.94-48.44-63.59-60.87-131.83-34.09-187.23,21.5-44.47,65.25-72.68,114.19-73.63,66.14-1.16,129.67,46.36,174.34,130.33,4.8,9.02,16.06,12.45,25.09,7.66,9.01-4.79,12.45-16.04,7.65-25.07-50.81-95.52-125.24-150.02-204.6-150.02Z"/>
</svg>