<?xml version="1.0" encoding="UTF-8"?>
<svg id="Capa_1" data-name="Capa 1" xmlns="http://www.w3.org/2000/svg" xmlns:xlink="http://www.w3.org/1999/xlink" viewBox="0 0 1080 1080">
  <defs>
    <style>
      .cls-1 {
        fill: #fff;
      }

      .cls-2 {
        fill: url(#Degradado_sin_nombre_8);
      }
    </style>
    <linearGradient id="Degradado_sin_nombre_8" data-name="Degradado sin nombre 8" x1="540" y1="984.91" x2="540" y2="95.09" gradientUnits="userSpaceOnUse">
      <stop offset="0" stop-color="#535cd4"/>
      <stop offset="1" stop-color="#6792eb"/>
    </linearGradient>
  </defs>
  <circle class="cls-2" cx="540" cy="540" r="444.91"/>
  <path class="cls-1" d="m557.68,887.82c-86.69,0-166.8-57.15-219.81-156.8-14.31-26.92-4.06-60.46,22.85-74.78,26.92-14.31,60.46-4.06,74.78,22.85,33.23,62.47,77.78,98.15,122.45,98.15.49,0,.96,0,1.45-.01,29.91-.58,56.73-17.92,69.94-45.25,17.83-36.88,8-84.35-26.96-130.24-12.82-16.83-24.07-34-34.95-50.6l-84.57-129.08c-8.09-12.35-10.89-27.12-7.88-41.57,3.01-14.46,11.47-26.88,23.82-34.97,12.36-8.1,27.14-10.89,41.59-7.88,14.46,3.01,26.87,11.48,34.96,23.83l84.5,128.98c10.29,15.7,20.01,30.54,30.48,44.3,61.1,80.21,75.16,169.64,38.56,245.36-31.43,65.03-95.57,106.3-167.39,107.69-1.28.02-2.55.04-3.81.04Zm-171.02-199.62c-2.67,0-5.38.63-7.89,1.97-8.2,4.36-11.33,14.6-6.96,22.8,46.11,86.69,113.86,136.41,185.88,136.41,1.02,0,2.06-.01,3.08-.03,57.26-1.11,108.42-34.05,133.53-85.99,30.07-62.22,17.49-137.07-34.53-205.36-11.31-14.84-21.39-30.23-32.06-46.52l-84.5-128.98c-2.47-3.77-6.25-6.35-10.66-7.26-4.41-.92-8.92-.06-12.69,2.41-3.76,2.47-6.34,6.25-7.26,10.66-.92,4.41-.07,8.91,2.4,12.68l84.5,128.98c10.58,16.14,21.45,32.73,33.44,48.48,44.05,57.81,55.34,119.87,30.99,170.25-19.54,40.44-59.33,66.09-103.83,66.95-.7.01-1.42.02-2.12.02-59.38,0-116.27-43.07-156.4-118.53-3.03-5.69-8.88-8.94-14.92-8.94Z"/>
  <path class="cls-1" d="m550.94,743.53c-18.73,0-36.03-9.34-46.28-24.99l-84.5-128.98c-10.33-15.77-20.07-30.63-30.48-44.29-61.11-80.21-75.16-169.64-38.56-245.37,31.44-65.04,95.58-106.3,167.4-107.69,88.28-1.6,169.75,55.5,223.62,156.76,14.31,26.92,4.06,60.46-22.85,74.78-26.93,14.3-60.47,4.05-74.78-22.85-33.23-62.47-77.78-98.15-122.44-98.15-.49,0-.97,0-1.46.01-29.91.58-56.73,17.92-69.94,45.25-17.82,36.88-7.99,84.35,26.97,130.24,12.76,16.75,23.96,33.84,34.8,50.37l.08.13,84.63,129.19c8.09,12.35,10.89,27.12,7.88,41.57-3.01,14.46-11.47,26.88-23.82,34.97-9.03,5.92-19.5,9.05-30.26,9.05Zm-28.78-512.92c-.97,0-1.94,0-2.92.03-57.25,1.11-108.42,34.06-133.53,85.99-30.07,62.23-17.49,137.08,34.53,205.36,11.24,14.75,21.34,30.16,32.03,46.47l84.53,129.02c3.13,4.77,8.41,7.62,14.14,7.62,3.26,0,6.45-.96,9.2-2.76,3.77-2.47,6.35-6.25,7.27-10.66.92-4.41.07-8.91-2.4-12.68l-84.71-129.31c-10.47-15.97-21.29-32.48-33.22-48.14-44.05-57.82-55.35-119.87-31-170.25,19.55-40.44,59.34-66.09,103.83-66.95,60.14-1.05,117.91,42.15,158.53,118.51,4.36,8.2,14.6,11.32,22.82,6.96,8.2-4.36,11.32-14.59,6.96-22.8-46.21-86.86-113.88-136.41-186.04-136.41Z"/>
</svg>