<?xml version="1.0" standalone="no"?>
<!DOCTYPE svg PUBLIC "-//W3C//DTD SVG 20010904//EN"
 "http://www.w3.org/TR/2001/REC-SVG-20010904/DTD/svg10.dtd">
<svg version="1.0" xmlns="http://www.w3.org/2000/svg"
 width="1080.000000pt" height="1080.000000pt" viewBox="0 0 1080.000000 1080.000000"
 preserveAspectRatio="xMidYMid meet">
<metadata>
Created by potrace 1.14, written by Peter Selinger 2001-2017
</metadata>
<g transform="translate(0.000000,1080.000000) scale(0.100000,-0.100000)"
fill="#000000" stroke="none">
<path d="M5327 9684 c-1 -1 -65 -5 -142 -8 -77 -4 -153 -8 -170 -10 -16 -2
-64 -7 -105 -11 -41 -3 -82 -8 -90 -10 -17 -5 -57 -11 -120 -20 -25 -3 -52 -8
-60 -10 -8 -2 -35 -7 -60 -10 -24 -4 -47 -8 -51 -10 -3 -2 -19 -7 -35 -9 -172
-32 -477 -125 -694 -213 -292 -118 -665 -321 -870 -473 -19 -15 -62 -46 -95
-71 -162 -120 -286 -228 -461 -403 -165 -166 -301 -321 -415 -476 -59 -79
-219 -316 -219 -323 0 -2 -25 -46 -56 -98 -77 -128 -201 -385 -269 -558 -31
-79 -58 -151 -60 -160 -2 -9 -12 -41 -24 -71 -37 -102 -86 -286 -126 -480 -23
-114 -29 -149 -40 -225 -4 -22 -8 -51 -10 -64 -4 -22 -10 -78 -20 -176 -7 -62
-18 -313 -18 -396 1 -92 12 -354 18 -404 11 -86 15 -125 20 -170 3 -27 11 -74
16 -103 6 -29 12 -65 14 -80 41 -297 208 -805 376 -1142 84 -168 285 -508 319
-540 3 -3 20 -27 39 -55 19 -27 66 -90 105 -140 39 -49 74 -94 79 -100 109
-143 499 -521 662 -641 22 -16 49 -37 60 -47 81 -73 458 -307 662 -410 294
-149 732 -302 1013 -353 14 -3 41 -9 60 -14 19 -5 58 -12 85 -16 28 -3 53 -8
56 -9 15 -10 284 -39 454 -51 89 -6 423 -6 500 0 28 3 88 7 135 11 47 3 92 8
100 10 8 2 40 6 71 10 31 3 65 7 75 9 11 2 39 7 64 10 305 47 690 161 1019
302 139 59 475 238 571 303 8 6 53 36 100 68 81 54 209 146 247 177 10 8 63
52 118 97 55 45 181 163 280 263 475 477 811 1019 1024 1652 49 146 97 314
116 404 25 118 47 234 51 275 4 27 8 53 10 57 2 3 7 30 9 60 3 29 7 64 10 78
5 32 14 143 21 240 6 103 6 423 0 490 -3 30 -8 96 -11 145 -3 50 -8 97 -10
105 -2 8 -6 40 -10 71 -3 31 -8 67 -10 80 -3 13 -7 41 -11 64 -29 203 -130
589 -198 760 -97 245 -130 320 -207 471 -75 149 -110 211 -166 300 -7 10 -22
35 -32 55 -11 19 -27 41 -35 48 -9 8 -16 18 -16 22 0 14 -143 211 -238 328
-127 156 -125 154 -307 337 -149 149 -270 258 -384 344 -18 14 -38 30 -45 37
-17 15 -206 149 -276 195 -251 164 -695 378 -940 453 -30 9 -62 19 -70 23 -8
3 -17 6 -20 7 -3 1 -36 11 -75 23 -119 36 -349 90 -455 107 -19 3 -42 8 -50
10 -8 2 -40 7 -70 10 -30 3 -62 8 -70 10 -14 4 -81 12 -170 19 -119 11 -467
25 -473 20z"/>
</g>
</svg>
