<?xml version="1.0" encoding="utf-8"?>
<!-- Generator: Adobe Illustrator 27.4.1, SVG Export Plug-In . SVG Version: 6.00 Build 0)  -->
<svg version="1.1" id="Capa_1" xmlns="http://www.w3.org/2000/svg" xmlns:xlink="http://www.w3.org/1999/xlink" x="0px" y="0px"
	 viewBox="0 0 1080 1080" style="enable-background:new 0 0 1080 1080;" xml:space="preserve">
<style type="text/css">
	.st0{fill:#53A0D4;}
	.st1{fill:#FFFFFF;}
</style>
<circle class="st0" cx="540" cy="540" r="428.11"/>
<g>
	<g>
		<path class="st1" d="M554.97,834.64c-73.43,0-141.3-48.41-186.2-132.83c-12.12-22.8-3.44-51.22,19.35-63.34
			c22.81-12.12,51.22-3.44,63.35,19.35c28.15,52.92,65.89,83.14,103.73,83.14c0.41,0,0.81,0,1.23-0.01
			c25.34-0.49,48.05-15.18,59.24-38.33c15.1-31.24,6.78-71.45-22.84-110.33c-10.86-14.26-20.39-28.8-29.61-42.86l-71.64-109.35
			c-6.86-10.46-9.23-22.97-6.68-35.22c2.55-12.25,9.72-22.77,20.18-29.62c10.47-6.86,22.99-9.23,35.23-6.68
			c12.25,2.55,22.76,9.72,29.62,20.18l71.58,109.26c8.72,13.3,16.95,25.87,25.82,37.52c51.76,67.95,63.67,143.71,32.66,207.85
			c-26.63,55.09-80.96,90.05-141.8,91.22C557.12,834.63,556.04,834.64,554.97,834.64z M410.1,665.54c-2.26,0-4.55,0.54-6.68,1.67
			c-6.95,3.7-9.6,12.36-5.9,19.32c39.06,73.44,96.46,115.56,157.46,115.56c0.87,0,1.74-0.01,2.61-0.02
			c48.5-0.94,91.85-28.85,113.11-72.84c25.48-52.71,14.82-116.12-29.25-173.96c-9.58-12.57-18.12-25.61-27.16-39.41L542.7,406.59
			c-2.09-3.19-5.3-5.38-9.03-6.15c-3.73-0.78-7.55-0.05-10.75,2.04c-3.19,2.09-5.37,5.3-6.15,9.03c-0.78,3.73-0.06,7.55,2.04,10.74
			l71.58,109.26c8.96,13.67,18.17,27.72,28.33,41.07c37.31,48.98,46.88,101.54,26.25,144.22c-16.56,34.26-50.26,55.99-87.96,56.71
			c-0.6,0.01-1.2,0.02-1.8,0.02c-50.3,0-98.49-36.49-132.49-100.41C420.17,668.29,415.21,665.54,410.1,665.54z"/>
	</g>
</g>
<g>
	<g>
		<path class="st1" d="M549.27,712.41c-15.87,0-30.52-7.91-39.21-21.17l-71.58-109.26c-8.75-13.36-17.01-25.94-25.82-37.52
			c-51.76-67.95-63.67-143.71-32.67-207.85c26.63-55.09,80.97-90.05,141.81-91.22c74.79-1.36,143.8,47.02,189.43,132.79
			c12.13,22.8,3.44,51.22-19.36,63.35c-22.81,12.11-51.23,3.43-63.34-19.36c-28.15-52.92-65.89-83.14-103.72-83.14
			c-0.41,0-0.82,0-1.23,0.01c-25.34,0.49-48.05,15.18-59.25,38.34c-15.1,31.24-6.77,71.45,22.84,110.33
			c10.81,14.19,20.3,28.67,29.48,42.67l0.07,0.11l71.7,109.44c6.86,10.46,9.23,22.97,6.68,35.22c-2.55,12.25-9.72,22.77-20.18,29.62
			C567.26,709.76,558.39,712.41,549.27,712.41z M524.89,277.91c-0.82,0-1.65,0.01-2.47,0.02c-48.5,0.94-91.85,28.85-113.11,72.84
			c-25.48,52.71-14.81,116.12,29.25,173.96c9.52,12.49,18.07,25.55,27.13,39.37l71.61,109.3c2.65,4.04,7.13,6.46,11.98,6.46
			c2.76,0,5.46-0.81,7.8-2.34c3.19-2.09,5.38-5.3,6.15-9.03c0.78-3.73,0.06-7.55-2.04-10.74l-71.76-109.54
			c-8.87-13.53-18.03-27.51-28.14-40.78c-37.32-48.98-46.89-101.55-26.26-144.22c16.56-34.26,50.26-55.99,87.96-56.72
			c50.95-0.89,99.89,35.71,134.29,100.39c3.7,6.95,12.37,9.59,19.33,5.9c6.94-3.69,9.59-12.36,5.89-19.31
			C643.35,319.89,586.02,277.91,524.89,277.91z"/>
	</g>
</g>
</svg>
